<svg width="32" height="32" viewBox="0 0 32 32" fill="none" xmlns="http://www.w3.org/2000/svg">
<g clip-path="url(#clip0_6_8)">
<path d="M27.025 23.6875L25.15 7.525C24.9625 5.875 23.575 4.6375 21.8875 4.6375H10.075C8.425 4.6375 7.0375 5.875 6.8125 7.525L4.9375 23.6875C4.825 24.625 5.125 25.525 5.7625 26.2375C6.4 26.95 7.2625 27.325 8.2 27.325H23.7625C24.7 27.325 25.6 26.9125 26.2 26.2375C26.8 25.5625 27.1375 24.625 27.025 23.6875ZM24.9625 25.1125C24.6625 25.45 24.25 25.6375 23.8 25.6375H8.2C7.75 25.6375 7.3375 25.45 7.0375 25.1125C6.7375 24.775 6.5875 24.325 6.6625 23.875L8.5 7.75C8.575 6.9625 9.25 6.3625 10.075 6.3625H21.925C22.7125 6.3625 23.3875 6.9625 23.5 7.75L25.375 23.9125C25.4125 24.3625 25.2625 24.775 24.9625 25.1125Z" fill="#3E4B5D"/>
<path d="M19.6375 9.77499C19.1875 9.88749 18.8875 10.3375 19 10.7875C19.0375 11.0125 19.075 11.2375 19.075 11.425C19.075 13.1125 17.6875 14.5 16 14.5C14.3125 14.5 12.925 13.1125 12.925 11.425C12.925 11.2 12.9625 11.0125 13 10.7875C13.1125 10.3375 12.8125 9.88749 12.3625 9.77499C11.9125 9.66249 11.4625 9.96249 11.35 10.4125C11.275 10.75 11.2375 11.0875 11.2375 11.425C11.2375 14.05 13.375 16.1875 16 16.1875C18.625 16.1875 20.7625 14.05 20.7625 11.425C20.7625 11.0875 20.725 10.75 20.65 10.4125C20.5375 9.96249 20.0875 9.69999 19.6375 9.77499Z" fill="#3E4B5D"/>
</g>
<defs>
<clipPath id="clip0_6_8">
<rect width="24" height="24" fill="white" transform="translate(4 4)"/>
</clipPath>
</defs>
</svg>
