<svg width="580" height="100" viewBox="0 0 580 100" fill="none" xmlns="http://www.w3.org/2000/svg">
<path d="M533.748 90.0654L533.761 90.0726L533.774 90.0797C535.649 91.0918 537.659 91.8145 539.791 92.2555C541.906 92.6932 544.345 92.8906 547.062 92.8906C552.287 92.8906 557.053 91.6565 561.251 89.1031C565.428 86.5812 568.67 83.1185 570.933 78.7726L570.938 78.7625L570.943 78.7523C573.157 74.431 574.234 69.6571 574.234 64.5C574.234 58.525 572.962 53.3038 570.129 49.1026C567.465 45.0754 563.893 41.9665 559.482 39.7969L559.468 39.7897L559.453 39.7826C559.054 39.5912 558.65 39.4033 558.239 39.2188H566.328H569.828V35.7188V13.3594V9.85938H566.328H552.875H550.792L549.799 11.6903L549.482 12.2733C545.758 9.72297 541.269 8.5 536.188 8.5C530.791 8.5 525.912 9.56067 521.663 11.811C517.47 14.0173 514.187 17.1552 511.907 21.1988C509.602 25.2615 508.5 29.8706 508.5 34.9219C508.5 41.2652 509.772 46.7489 512.65 51.0665C515.367 55.142 518.959 58.299 523.372 60.5055C524.186 60.9121 525.035 61.3113 525.921 61.7031H513.734H510.234V65.2031V88.0312V91.5312H513.734H528.875H531.288L532.146 89.2758L532.193 89.1525C532.718 89.4786 533.236 89.7832 533.748 90.0654ZM545.53 32.7629C546.207 33.2189 547.037 34.0974 547.935 35.6269C546.839 35.3331 545.714 35.0546 544.561 34.7911L544.547 34.7879L544.533 34.7849C541.515 34.1208 539.412 33.4405 538.081 32.7996L538.046 32.7828L538.011 32.7668C537.722 32.6357 537.565 32.5264 537.487 32.463C537.487 32.4613 537.487 32.4597 537.487 32.4581C537.512 32.4358 537.558 32.3983 537.635 32.3498L537.662 32.3325L537.689 32.3146C538.081 32.0566 538.979 31.7188 540.781 31.7188C543.228 31.7188 544.689 32.1968 545.53 32.7629ZM532.111 64.1157C534.194 64.8251 536.435 65.5002 538.83 66.1427C541.057 66.7588 542.561 67.376 543.491 67.9294L543.518 67.9453L543.545 67.9607C543.65 68.0208 543.7 68.0648 543.718 68.0821C543.72 68.0841 543.722 68.0858 543.724 68.0873C543.725 68.0912 543.726 68.0966 543.728 68.1034C543.731 68.1157 543.735 68.1345 543.739 68.1606C543.7 68.1887 543.65 68.2223 543.587 68.2606C542.939 68.6165 542.019 68.875 540.688 68.875C538.178 68.875 536.293 68.4237 534.887 67.6955C533.82 67.1036 532.846 66.0401 532.111 64.1157Z" fill="#FB730A" stroke="#233486" stroke-width="7"/>
<path d="M491.953 70.7969V67.2969H488.453H484.594V55.4709L497.597 33H504.016H507.516V29.5V13V9.5H504.016H474.156H473.438H470.656H469.938H430H426.5V13V29.5V33H430H433.493L451.438 58.182V67.2969H447.766H444.266V70.7969V87.5781V91.0781H447.766H488.453H491.953V87.5781V70.7969ZM474.156 33H475.098L473.891 35.2455L472.354 33H473.438H474.156Z" fill="#9D3379" stroke="#233486" stroke-width="7"/>
<path d="M366.563 87.3879L366.57 87.3922C372.885 91.1047 380.255 92.8906 388.547 92.8906C396.865 92.8906 404.238 91.1071 410.526 87.3908C416.788 83.7088 421.572 78.6161 424.815 72.1657C428.031 65.7671 429.594 58.5436 429.594 50.5781C429.594 42.3807 428.022 35.0373 424.761 28.6491C421.515 22.2286 416.75 17.2185 410.522 13.6893L410.512 13.6836L410.502 13.678C404.225 10.1753 396.862 8.5 388.547 8.5C380.199 8.5 372.816 10.1916 366.534 13.7305C360.299 17.2297 355.532 22.2283 352.284 28.6522C349.053 35.0128 347.5 42.3565 347.5 50.5781C347.5 58.5436 349.063 65.7671 352.279 72.1657L352.282 72.1723L352.286 72.179C355.557 78.6179 360.335 83.7062 366.563 87.3879ZM393.081 65.1924L393.076 65.2027L393.072 65.2129C392.332 66.9126 391.544 67.9113 390.835 68.4737C390.182 68.9925 389.466 69.25 388.547 69.25C387.604 69.25 386.874 68.9873 386.215 68.4673C385.502 67.9049 384.713 66.9083 383.975 65.2129C382.46 61.7309 381.594 56.7968 381.594 50.2031C381.594 43.787 382.431 39.0715 383.871 35.8253C384.556 34.281 385.309 33.3788 386.008 32.8629C386.668 32.3756 387.464 32.0938 388.547 32.0938C389.607 32.0938 390.389 32.3714 391.042 32.8569C391.737 33.3725 392.489 34.2764 393.176 35.8253L393.18 35.8361L393.185 35.8468C394.648 39.0855 395.5 43.7924 395.5 50.2031C395.5 56.7915 394.619 61.7174 393.081 65.1924Z" fill="#E90183" stroke="#233486" stroke-width="7"/>
<path d="M332.375 70.7031V67.2031H328.875H324.688V33H325.038L326.589 42.8864L327.053 45.8438H330.047H343.172H346.672V42.3438V13V9.5H343.172H273H269.5V13V42.3438V45.8438H273H286.172H289.165L289.63 42.8864L291.181 33H291.297V67.2031H287.109H283.609V70.7031V87.5781V91.0781H287.109H328.875H332.375V87.5781V70.7031Z" fill="#00A6FD" stroke="#233486" stroke-width="7"/>
<path d="M206.312 91.1719H209.812V87.6719V70.8906V67.3906H206.312H203.016V64.8741C204.125 64.9378 205.287 64.9688 206.5 64.9688C217.255 64.9688 225.969 62.8133 232.042 57.9109C238.364 52.8075 241.125 44.7042 241.125 34.5625C241.125 28.5281 239.619 23.3241 236.194 19.3825C232.975 15.6423 228.613 13.106 223.336 11.6457C218.243 10.1969 212.492 9.5 206.125 9.5H166.188H162.688V13V29.5938V33.0938H166.188H169.812V67.3906H166H162.5V70.8906V87.6719V91.1719H166H206.312ZM207.198 41.2176C206.48 41.8501 205.232 42.4286 203.109 42.6205V33.0938H203.547C205.627 33.0938 206.87 33.5844 207.642 34.2018C208.239 34.6794 208.672 35.3771 208.672 36.8125C208.672 39.2749 207.994 40.5166 207.198 41.2176Z" fill="#9CCB0A" stroke="#233486" stroke-width="7"/>
<path d="M102.563 87.3879L102.57 87.3922C108.885 91.1047 116.255 92.8906 124.547 92.8906C132.865 92.8906 140.238 91.1071 146.526 87.3908C152.788 83.7088 157.572 78.6161 160.815 72.1657C164.031 65.7671 165.594 58.5436 165.594 50.5781C165.594 42.3807 164.022 35.0373 160.761 28.6491C157.515 22.2286 152.75 17.2185 146.522 13.6893L146.512 13.6836L146.502 13.678C140.225 10.1753 132.862 8.5 124.547 8.5C116.199 8.5 108.816 10.1916 102.534 13.7305C96.2995 17.2297 91.5316 22.2283 88.2843 28.6522C85.0532 35.0128 83.5 42.3565 83.5 50.5781C83.5 58.5436 85.0627 65.7671 88.2791 72.1657L88.2825 72.1723L88.2858 72.179C91.5569 78.6179 96.3347 83.7062 102.563 87.3879ZM129.081 65.1924L129.076 65.2027L129.072 65.2129C128.332 66.9126 127.544 67.9113 126.835 68.4737C126.182 68.9925 125.466 69.25 124.547 69.25C123.604 69.25 122.874 68.9873 122.215 68.4673C121.502 67.9049 120.713 66.9083 119.975 65.2129C118.46 61.7309 117.594 56.7968 117.594 50.2031C117.594 43.787 118.431 39.0715 119.871 35.8253C120.556 34.281 121.309 33.3788 122.008 32.8629C122.668 32.3756 123.464 32.0938 124.547 32.0938C125.607 32.0938 126.389 32.3714 127.042 32.8569C127.737 33.3725 128.489 34.2764 129.176 35.8253L129.18 35.8361L129.185 35.8468C130.648 39.0855 131.5 43.7924 131.5 50.2031C131.5 56.7915 130.619 61.7174 129.081 65.1924Z" fill="#FFC400" stroke="#233486" stroke-width="7"/>
<path d="M49.3125 91.1719H52.8125V87.6719V70.8906V67.3906H49.3125H46.0156V64.8741C47.1248 64.9378 48.2869 64.9688 49.5 64.9688C60.2545 64.9688 68.9691 62.8133 75.0422 57.9109C81.3643 52.8075 84.125 44.7042 84.125 34.5625C84.125 28.5281 82.6194 23.3241 79.1943 19.3825C75.9749 15.6423 71.613 13.106 66.3361 11.6457C61.2428 10.1969 55.492 9.5 49.125 9.5H9.1875H5.6875V13V29.5938V33.0938H9.1875H12.8125V67.3906H9H5.5V70.8906V87.6719V91.1719H9H49.3125ZM50.198 41.2176C49.4801 41.8501 48.2317 42.4286 46.1094 42.6205V33.0938H46.5469C48.6266 33.0938 49.87 33.5844 50.6417 34.2018C51.2387 34.6794 51.6719 35.3771 51.6719 36.8125C51.6719 39.2749 50.9936 40.5166 50.198 41.2176Z" fill="#ED1B26" stroke="#233486" stroke-width="7"/>
<path d="M535.2 87.4399L535.196 87.4379C533.796 86.6665 532.313 85.6932 530.746 84.5205L529.342 88.209L529.22 88.5312H528.875H513.734H513.234V88.0312V65.2031V64.7031H513.734H528.781H529.13L529.25 65.03C530.186 67.5667 531.601 69.3166 533.47 70.3403C535.412 71.355 537.811 71.875 540.688 71.875C542.432 71.875 543.889 71.5297 545.08 70.863C546.244 70.1802 546.75 69.3427 546.75 68.3438C546.75 66.989 546.187 66.0156 545.033 65.356L545.025 65.3516L545.026 65.3515C543.768 64.6029 541.973 63.8986 539.619 63.2481C539.618 63.2479 539.617 63.2477 539.617 63.2476L539.75 62.7656L535.2 87.4399ZM535.2 87.4399C536.807 88.3078 538.541 88.9333 540.399 89.3178C542.254 89.7017 544.478 89.8906 547.062 89.8906C551.8 89.8906 556.017 88.7767 559.697 86.5367C563.401 84.3015 566.261 81.2489 568.272 77.3872L568.273 77.3843C570.25 73.5259 571.234 69.2278 571.234 64.5C571.234 58.9321 570.048 54.3424 567.634 50.7689C565.272 47.1937 562.11 44.4327 558.158 42.4888L558.154 42.4868C554.144 40.5607 549.388 38.9718 543.893 37.7157L543.889 37.7148C540.779 37.0307 538.416 36.2906 536.779 35.5026L536.779 35.5025L536.769 35.4979C535.962 35.1311 535.394 34.6964 535.028 34.2108C534.667 33.7318 534.484 33.1785 534.484 32.5312C534.484 31.3682 534.982 30.4768 536.033 29.8134L536.033 29.8134L536.04 29.8083C537.114 29.1018 538.676 28.7188 540.781 28.7188C543.568 28.7188 545.692 29.2558 547.205 30.2742C548.725 31.2968 550.16 33.1592 551.486 35.9343L551.622 36.2188H551.938H566.328H566.828V35.7188V13.3594V12.8594H566.328H552.875H552.577M535.2 87.4399L552.577 12.8594M552.577 12.8594L552.436 13.1209M552.577 12.8594L552.436 13.1209M552.436 13.1209L550.374 16.9211C546.813 13.2964 542.066 11.5 536.188 11.5C531.184 11.5 526.804 12.4819 523.063 14.4641C519.357 16.4132 516.504 19.1516 514.518 22.6757L552.436 13.1209Z" fill="#FB730A" stroke="white"/>
<path d="M488.953 70.7969V70.2969H488.453H481.594V54.6655L495.866 30H504.016H504.516V29.5V13V12.5H504.016H474.156H473.656V13V29.5V30H474.156H480.117L474.199 41.0083L466.667 30H469.938H470.438V29.5V13V12.5H469.938H430H429.5V13V29.5V30H430H435.039L454.438 57.2224V70.2969H447.766H447.266V70.7969V87.5781V88.0781H447.766H488.453H488.953V87.5781V70.7969Z" fill="#9D3379" stroke="white"/>
<path d="M368.089 84.8054L368.09 84.806C373.867 88.2025 380.693 89.8906 388.547 89.8906C396.431 89.8906 403.257 88.2029 409.003 84.806C414.773 81.4139 419.153 76.7488 422.134 70.8183C425.112 64.8953 426.594 58.1446 426.594 50.5781C426.594 42.7644 425.097 35.9029 422.087 30.0082C419.105 24.1087 414.755 19.5357 409.043 16.2994L409.041 16.2978C403.296 13.092 396.458 11.5 388.547 11.5C380.604 11.5 373.75 13.1077 368.005 16.3454C362.293 19.5507 357.942 24.1085 354.96 30.0084C351.981 35.8724 350.5 42.734 350.5 50.5781C350.5 58.1446 351.982 64.8953 354.96 70.8183L354.96 70.8202C357.972 76.749 362.351 81.4134 368.089 84.8054ZM395.824 66.4069L395.823 66.4099C394.954 68.4072 393.907 69.8657 392.701 70.8233C391.503 71.7746 390.125 72.25 388.547 72.25C386.952 72.25 385.562 71.7739 384.357 70.8223C383.143 69.8648 382.093 68.4065 381.224 66.4099C379.481 62.4035 378.594 57.0112 378.594 50.2031C378.594 43.5812 379.45 38.3941 381.129 34.609C381.963 32.7276 383.002 31.3532 384.227 30.4492C385.446 29.5492 386.879 29.0938 388.547 29.0938C390.198 29.0938 391.619 29.5486 392.831 30.4483C394.048 31.3523 395.083 32.727 395.918 34.609L395.919 34.612C397.628 38.3961 398.5 43.5819 398.5 50.2031C398.5 57.0104 397.597 62.4016 395.824 66.4069Z" fill="#E90183" stroke="white"/>
<path d="M329.375 70.7031V70.2031H328.875H321.688V30H327.604L329.553 42.4213L329.619 42.8438H330.047H343.172H343.672V42.3438V13V12.5H343.172H273H272.5V13V42.3438V42.8438H273H286.172H286.6L286.666 42.4213L288.615 30H294.297V70.2031H287.109H286.609V70.7031V87.5781V88.0781H287.109H328.875H329.375V87.5781V70.7031Z" fill="#00A6FD" stroke="white"/>
<path d="M206.312 88.1719H206.812V87.6719V70.8906V70.3906H206.312H200.016V61.5787C201.913 61.8395 204.075 61.9688 206.5 61.9688C216.929 61.9688 224.844 59.8662 230.158 55.5766C235.507 51.2582 238.125 44.2078 238.125 34.5625C238.125 29.013 236.745 24.5865 233.925 21.3448C231.162 18.1319 227.351 15.8678 222.526 14.5342C217.753 13.1754 212.285 12.5 206.125 12.5H166.188H165.688V13V29.5938V30.0938H166.188H172.812V70.3906H166H165.5V70.8906V87.6719V88.1719H166H206.312ZM201.531 45.6875H200.109V30.0938H203.547C206.094 30.0938 208.066 30.6996 209.516 31.8592C210.94 32.9988 211.672 34.6253 211.672 36.8125C211.672 39.8428 210.815 42.0292 209.181 43.4686C207.535 44.9187 205.016 45.6875 201.531 45.6875Z" fill="#9CCB0A" stroke="white"/>
<path d="M104.089 84.8054L104.09 84.806C109.867 88.2025 116.693 89.8906 124.547 89.8906C132.431 89.8906 139.257 88.2029 145.003 84.806C150.773 81.4139 155.153 76.7488 158.134 70.8183C161.112 64.8953 162.594 58.1446 162.594 50.5781C162.594 42.7644 161.097 35.9029 158.087 30.0082C155.105 24.1087 150.755 19.5357 145.043 16.2994L145.041 16.2978C139.296 13.092 132.458 11.5 124.547 11.5C116.604 11.5 109.75 13.1077 104.005 16.3454C98.2928 19.5507 93.942 24.1085 90.9602 30.0084C87.9808 35.8724 86.5 42.734 86.5 50.5781C86.5 58.1446 87.9822 64.8953 90.9595 70.8183L90.9605 70.8202C93.9724 76.749 98.3514 81.4134 104.089 84.8054ZM131.824 66.4069L131.823 66.4099C130.954 68.4072 129.907 69.8657 128.701 70.8233C127.503 71.7746 126.125 72.25 124.547 72.25C122.952 72.25 121.562 71.7739 120.357 70.8223C119.143 69.8648 118.093 68.4065 117.224 66.4099C115.481 62.4035 114.594 57.0112 114.594 50.2031C114.594 43.5812 115.45 38.3941 117.129 34.609C117.963 32.7276 119.002 31.3532 120.227 30.4492C121.446 29.5492 122.879 29.0938 124.547 29.0938C126.198 29.0938 127.619 29.5486 128.831 30.4483C130.048 31.3523 131.083 32.727 131.918 34.609L131.919 34.612C133.628 38.3961 134.5 43.5819 134.5 50.2031C134.5 57.0104 133.597 62.4016 131.824 66.4069Z" fill="#FFC400" stroke="white"/>
<path d="M49.3125 88.1719H49.8125V87.6719V70.8906V70.3906H49.3125H43.0156V61.5787C44.9127 61.8395 47.0749 61.9688 49.5 61.9688C59.9292 61.9688 67.8438 59.8662 73.1578 55.5766C78.5074 51.2582 81.125 44.2078 81.125 34.5625C81.125 29.013 79.7448 24.5865 76.925 21.3448C74.1615 18.1319 70.3509 15.8678 65.5257 14.5342C60.7534 13.1754 55.2845 12.5 49.125 12.5H9.1875H8.6875V13V29.5938V30.0938H9.1875H15.8125V70.3906H9H8.5V70.8906V87.6719V88.1719H9H49.3125ZM44.5312 45.6875H43.1094V30.0938H46.5469C49.094 30.0938 51.0663 30.6996 52.5158 31.8592C53.9404 32.9988 54.6719 34.6253 54.6719 36.8125C54.6719 39.8428 53.8149 42.0292 52.1812 43.4686C50.5353 44.9187 48.0155 45.6875 44.5312 45.6875Z" fill="#ED1B26" stroke="white"/>
<path d="M124.547 89.3906C116.766 89.3906 110.031 87.7187 104.344 84.375C98.6875 81.0312 94.375 76.4375 91.4062 70.5937C89.7321 67.2633 88.535 63.6639 87.815 59.7954C96.69 58.6117 105.544 57.4716 114.37 56.3738C114.758 60.4191 115.557 63.8309 116.766 66.6094C118.547 70.7031 121.141 72.75 124.547 72.75C127.922 72.75 130.5 70.7031 132.281 66.6094C133.756 63.2792 134.63 59.0391 134.905 53.889C144.005 52.8186 153.07 51.7924 162.093 50.809C162.063 58.2151 160.595 64.81 157.688 70.5937C154.75 76.4375 150.438 81.0312 144.75 84.375C139.094 87.7187 132.359 89.3906 124.547 89.3906Z" fill="black" fill-opacity="0.1"/>
<path d="M173.312 49.606V70.8906H166V87.6719H206.312V70.8906H199.516V61C201.516 61.3125 203.844 61.4688 206.5 61.4688C216.875 61.4688 224.656 59.375 229.844 55.1875C233.235 52.4501 235.518 48.5643 236.692 43.53C215.875 45.3295 194.719 47.3481 173.312 49.606Z" fill="black" fill-opacity="0.1"/>
<path d="M273 40.582V42.3437H286.172L286.606 39.5744C282.091 39.9001 277.555 40.2359 273 40.582Z" fill="black" fill-opacity="0.1"/>
<path d="M294.797 38.9931V70.7031H287.109V87.5781H328.875V70.7031H321.188V37.2482C312.479 37.7919 303.68 38.373 294.797 38.9931Z" fill="black" fill-opacity="0.1"/>
<path d="M329.17 36.7587L330.047 42.3437H343.172V35.9429C338.533 36.2041 333.865 36.476 329.17 36.7587Z" fill="black" fill-opacity="0.1"/>
<path d="M353.263 35.3886C351.754 39.9381 351 45.0013 351 50.5781C351 58.0781 352.469 64.75 355.406 70.5937C358.375 76.4375 362.688 81.0312 368.344 84.375C374.031 87.7187 380.766 89.3906 388.547 89.3906C396.359 89.3906 403.094 87.7187 408.75 84.375C414.438 81.0312 418.75 76.4375 421.688 70.5937C424.625 64.75 426.094 58.0781 426.094 50.5781C426.094 43.7474 424.941 37.6692 422.634 32.3436C413.861 32.6436 404.934 32.9815 395.864 33.3597C396.042 33.6913 396.213 34.0401 396.375 34.4062C398.125 38.2812 399 43.5469 399 50.2031C399 57.0469 398.094 62.5156 396.281 66.6094C394.5 70.7031 391.922 72.75 388.547 72.75C385.141 72.75 382.547 70.7031 380.766 66.6094C378.984 62.5156 378.094 57.0469 378.094 50.2031C378.094 43.5469 378.953 38.2812 380.672 34.4062C380.73 34.2743 380.79 34.1447 380.851 34.0173C371.784 34.4333 362.585 34.8896 353.263 35.3886Z" fill="black" fill-opacity="0.1"/>
<path d="M436.994 31.8819L454.938 57.0625V70.7969H447.766V87.5781H488.453V70.7969H481.094V54.5312L494.924 30.6299C490.095 30.692 485.195 30.766 480.226 30.8524L474.25 41.9687L466.822 31.1127C457.115 31.3206 447.167 31.5756 436.994 31.8819Z" fill="black" fill-opacity="0.1"/>
<path d="M512.346 30.4538C512.115 31.8809 512 33.3702 512 34.9219C512 40.8281 513.188 45.5625 515.562 49.125C517.938 52.6875 521.062 55.4375 524.938 57.375C526.875 58.3438 529.062 59.2812 531.5 60.1875C533.969 61.0938 536.719 61.9531 539.75 62.7656C542.125 63.4219 543.969 64.1406 545.281 64.9219C546.594 65.6719 547.25 66.8125 547.25 68.3437C547.25 69.5625 546.609 70.5469 545.328 71.2969C544.047 72.0156 542.5 72.375 540.688 72.375C537.75 72.375 535.266 71.8437 533.234 70.7812C531.234 69.6875 529.75 67.8281 528.781 65.2031H513.734V88.0312H528.875L530.516 83.7187C532.266 85.0625 533.906 86.1562 535.438 87C537 87.8437 538.688 88.4531 540.5 88.8281C542.312 89.2031 544.5 89.3906 547.062 89.3906C551.719 89.3906 555.844 88.2969 559.438 86.1094C563.062 83.9219 565.859 80.9375 567.828 77.1562C569.766 73.375 570.734 69.1562 570.734 64.5C570.734 59 569.562 54.5156 567.219 51.0469C564.906 47.5469 561.812 44.8437 557.938 42.9375C553.969 41.0312 549.25 39.4531 543.781 38.2031C540.656 37.5156 538.25 36.7656 536.562 35.9531C534.844 35.1719 533.984 34.0312 533.984 32.5312C533.984 31.6981 534.213 30.9791 534.669 30.3742C527.438 30.3723 519.993 30.398 512.346 30.4538Z" fill="black" fill-opacity="0.1"/>
<path d="M548.207 30.4106C549.552 31.5594 550.796 33.3288 551.938 35.7187H566.328V30.5672C560.47 30.4955 554.427 30.4427 548.207 30.4106Z" fill="black" fill-opacity="0.1"/>
<path d="M9 71.4227V87.6719H49.3125V70.8906H42.5156V66.1993C33.7901 67.5041 25.0539 68.8527 16.3125 70.2464V70.8906H12.2917C11.1945 71.0673 10.0973 71.2446 9 71.4227Z" fill="black" fill-opacity="0.1"/>
</svg>
